<svg width="20" height="24" viewBox="0 0 20 24" fill="none" xmlns="http://www.w3.org/2000/svg">
<path d="M0.75 0V24H3.20572V23.1654C3.20572 22.7473 3.5459 22.4071 3.96403 22.4071C4.38215 22.4071 4.72234 22.7473 4.72234 23.1654V24H7.22957V23.1654C7.22957 22.7473 7.56973 22.4071 7.98783 22.4071C8.40593 22.4071 8.74611 22.7473 8.74611 23.1654V24H11.2534V23.1654C11.2534 22.7473 11.5935 22.4071 12.0116 22.4071C12.4297 22.4071 12.7699 22.7473 12.7699 23.1654V24H15.2772V23.1654C15.2772 22.7473 15.6173 22.4071 16.0354 22.4071C16.4536 22.4071 16.7937 22.7473 16.7937 23.1654V24H19.2495V0H16.7938V0.834606C16.7938 1.25273 16.4536 1.59289 16.0355 1.59289C15.6174 1.59289 15.2772 1.25273 15.2772 0.834606V0H12.7699V0.834606C12.7699 1.25273 12.4298 1.59289 12.0117 1.59289C11.5936 1.59289 11.2534 1.25273 11.2534 0.834606V0H8.74614V0.834606C8.74614 1.25273 8.40595 1.59289 7.98785 1.59289C7.56976 1.59289 7.22957 1.25273 7.22957 0.834606V0H4.72234V0.834606C4.72234 1.25273 4.38215 1.59289 3.96403 1.59289C3.5459 1.59289 3.20572 1.25273 3.20572 0.834606V0H0.75ZM3.96403 3.2621C4.80028 3.2621 5.5392 2.83697 5.97597 2.19155C6.41273 2.83697 7.15161 3.2621 7.98788 3.2621C8.82418 3.2621 9.56308 2.83707 9.99982 2.19155C10.4366 2.83707 11.1754 3.2621 12.0117 3.2621C12.8481 3.2621 13.587 2.83704 14.0237 2.19155C14.4604 2.83707 15.1992 3.2621 16.0356 3.2621C16.6219 3.2621 17.1604 3.05314 17.5804 2.70579V21.2942C17.1604 20.9469 16.6219 20.7379 16.0356 20.7379C15.1993 20.7379 14.4604 21.163 14.0237 21.8085C13.587 21.1629 12.8481 20.7379 12.0117 20.7379C11.1754 20.7379 10.4365 21.1629 9.99979 21.8085C9.56305 21.1629 8.82421 20.7379 7.98785 20.7379C7.15163 20.7379 6.41271 21.163 5.97594 21.8085C5.53917 21.163 4.80028 20.7379 3.964 20.7379C3.37765 20.7379 2.83918 20.9469 2.41919 21.2942V2.70579C2.83921 3.05314 3.37767 3.2621 3.96403 3.2621Z" fill="white"/>
<path d="M14.9319 5.26685H5.29199V6.93605H14.9319V5.26685Z" fill="white"/>
<path d="M14.9319 8.73364H5.29199V10.4029H14.9319V8.73364Z" fill="white"/>
<path d="M14.9319 12.2002H5.29199V13.8694H14.9319V12.2002Z" fill="white"/>
<path d="M14.9315 17.2078H8.76855V18.877H14.9315V17.2078Z" fill="white"/>
</svg>
