<svg width="24" height="24" viewBox="0 0 24 24" fill="none" xmlns="http://www.w3.org/2000/svg">
<path d="M23.5594 8.54347C23.2851 8.23562 22.9103 8.0354 22.5019 7.97855V7.9777L16.1234 7.09659L13.5994 1.06529C13.2308 0.182475 12.2163 -0.2344 11.3336 0.134164C10.9127 0.309883 10.5781 0.644447 10.4025 1.06529L7.87836 7.09659L1.49994 7.9777C0.54963 8.10997 -0.113523 8.98767 0.018756 9.93798C0.0756048 10.3464 0.275831 10.7212 0.583679 10.9955L5.38936 15.2809L4.40194 22.0055C4.29497 22.6884 4.6086 23.3687 5.19732 23.7309C5.77776 24.102 6.52438 24.0882 7.09061 23.6957L12.0009 20.3565L16.9111 23.6991C17.7034 24.2369 18.7817 24.0305 19.3195 23.2382C19.5639 22.8781 19.6639 22.4393 19.5998 22.009L18.6124 15.2817L23.4181 10.9963C24.1345 10.358 24.1977 9.25981 23.5594 8.54347ZM17.1262 14.3132C16.9112 14.5053 16.8072 14.7926 16.8494 15.0778L17.8779 22.2773L12.4851 18.6107C12.1944 18.4131 11.8125 18.4131 11.5218 18.6107L6.09726 22.255L7.15233 15.0744C7.19331 14.7903 7.08935 14.5046 6.87547 14.3133L1.73296 9.67814L8.5965 8.73104C8.89702 8.68961 9.15319 8.4924 9.27015 8.21252L12.0111 1.71413C12.0142 1.71795 12.0165 1.72232 12.018 1.72699L14.7307 8.20911C14.8476 8.48898 15.1038 8.6862 15.4043 8.72763L22.2764 9.71671L17.1262 14.3132Z" fill="white"/>
</svg>
