<svg width="27" height="21" viewBox="0 0 27 21" fill="none" xmlns="http://www.w3.org/2000/svg">
<path d="M11.4939 0.443115V1.34371C11.4939 2.4499 12.3938 3.34986 13.5 3.34986C14.6062 3.34986 15.5061 2.4499 15.5061 1.34371V0.443115H19.5504L27 8.15645L22.0603 13.0962L20.0687 11.0125V20.5568H6.93128V11.0124L4.93971 13.0962L3.27237e-07 8.15639L7.44964 0.443115H11.4939ZM4.91059 10.5198L8.73248 6.52088V18.7555H18.2675V6.52088L22.0894 10.5198L24.4747 8.13447L18.7859 2.24431H17.1997C16.7941 3.91039 15.2892 5.15106 13.5 5.15106C11.7108 5.15106 10.2059 3.91042 9.80026 2.24431H8.21412L2.52531 8.13447L4.91059 10.5198Z" fill="white"/>
</svg>
