<svg width="27" height="23" viewBox="0 0 27 23" fill="none" xmlns="http://www.w3.org/2000/svg">
<path d="M26.7654 7.67642C26.972 7.16572 27.0371 6.57008 26.9805 6.02419C26.9136 5.3796 26.7253 4.75289 26.3612 4.21058L24.766 5.14306L24.9908 5.53871C25.055 5.71274 25.1036 5.89094 25.1369 6.07343C25.1537 6.25986 25.1546 6.44638 25.1386 6.63301C25.1074 6.80492 25.0618 6.97279 25.0013 7.13666C24.9261 7.29348 24.838 7.44271 24.7378 7.58483C24.6658 7.67032 24.5891 7.75122 24.5087 7.82853C24.5001 7.81163 24.4918 7.79472 24.4831 7.77781C23.8705 6.58489 22.9977 5.51685 21.8886 4.60344C19.645 2.75534 16.6729 1.73757 13.52 1.73757C12.6004 1.73757 11.6948 1.82519 10.8195 1.99847C10.1723 1.30827 9.3229 0.79309 8.2861 0.462997C7.40549 0.182647 6.40631 0.0405273 5.31635 0.0405273C4.34709 0.0405273 3.65239 0.157062 3.6233 0.162017L2.55719 0.343775L4.20525 5.74253C3.77278 6.25135 3.39754 6.79587 3.08404 7.36959L0 8.23829V15.2271L3.08427 16.0959C3.72615 17.2687 4.63217 18.3243 5.73809 19.1888L5.24004 22.9593H12.0224L12.8928 21.7141C13.1015 21.7232 13.3111 21.7278 13.5201 21.7278C14.4142 21.7278 15.3013 21.6451 16.166 21.4815L17.1364 22.9593H23.9365L23.2224 17.5567C23.8782 16.7909 24.3989 15.9548 24.7732 15.0658C25.2229 13.9974 25.451 12.876 25.451 11.7327C25.451 11.0172 25.3624 10.3133 25.187 9.62627C25.4108 9.48505 25.6214 9.32174 25.8193 9.13382C26.2507 8.724 26.5445 8.22231 26.7654 7.67642ZM21.5266 16.5978L21.2191 16.9264L21.7649 21.0559H18.1636L17.0319 19.3324L16.3811 19.489C15.4562 19.7115 14.4936 19.8244 13.52 19.8244C13.178 19.8244 12.8341 19.8102 12.4976 19.7823L11.9523 19.7371L11.0305 21.0559H7.41154L7.77447 18.3083L7.29996 17.977C6.11714 17.1512 5.18184 16.0785 4.59516 14.8748L4.40828 14.4913L1.90352 13.7857V9.67971L4.40828 8.97415L4.59516 8.59067C4.93914 7.88491 5.39909 7.22669 5.96223 6.63433L6.34486 6.23184L5.03709 1.9478C5.12647 1.94539 5.21971 1.94402 5.31635 1.94402C6.19754 1.94402 7.02479 2.0591 7.70866 2.2768C8.58391 2.55544 9.24908 3.00392 9.68569 3.6098L10.0614 4.13117L10.6854 3.97749C11.5919 3.75424 12.5456 3.64104 13.52 3.64104C19.0492 3.64104 23.5475 7.27091 23.5475 11.7327C23.5475 13.5023 22.8487 15.1846 21.5266 16.5978Z" fill="#42427D"/>
<path d="M7.91956 9.67554C8.45384 9.67554 8.88697 9.24242 8.88697 8.70813C8.88697 8.17385 8.45384 7.74072 7.91956 7.74072C7.38527 7.74072 6.95215 8.17385 6.95215 8.70813C6.95215 9.24242 7.38527 9.67554 7.91956 9.67554Z" fill="#42427D"/>
<path d="M12.1875 4.84735L12.6066 6.70418C12.6132 6.70267 13.2989 6.55498 14.2445 6.5949C15.1157 6.63165 16.3822 6.84093 17.4678 7.62913L18.5861 6.08878C15.7965 4.06335 12.3336 4.81437 12.1875 4.84735Z" fill="#42427D"/>
</svg>
