<svg width="22" height="24" viewBox="0 0 22 24" fill="none" xmlns="http://www.w3.org/2000/svg">
<path d="M21.3317 5.62161L15.7101 0H0.668945V24H21.3317V5.62161ZM16.2131 2.93176L18.4 5.1186H16.2131V2.93176ZM19.6143 22.2826H2.38633V1.71739H14.4958V6.83598H19.6143V22.2826Z" fill="white"/>
<path d="M18.1748 9.35449H9.84082V11.0719H18.1748V9.35449Z" fill="white"/>
<path d="M5.35119 13.6472L4.67631 12.9723L3.46191 14.1867L5.35119 16.076L8.47211 12.9551L7.25774 11.7407L5.35119 13.6472Z" fill="white"/>
<path d="M5.35117 17.9251L4.67628 17.2501L3.46191 18.4645L5.35117 20.3538L8.47209 17.2329L7.25772 16.0186L5.35117 17.9251Z" fill="white"/>
<path d="M5.35117 9.36942L4.67628 8.69451L3.46191 9.90888L5.35117 11.7982L8.47209 8.67726L7.25772 7.46289L5.35117 9.36942Z" fill="white"/>
<path d="M18.1748 13.6353H9.84082V15.3526H18.1748V13.6353Z" fill="white"/>
<path d="M18.1748 17.9158H9.84082V19.6332H18.1748V17.9158Z" fill="white"/>
</svg>
